<svg fill="none" height="85" viewBox="0 0 121 85" width="121" xmlns="http://www.w3.org/2000/svg" xmlns:xlink="http://www.w3.org/1999/xlink"><filter id="a" color-interpolation-filters="sRGB" filterUnits="userSpaceOnUse" height="31.4553" width="120.543" x="0" y="53"><feFlood flood-opacity="0" result="BackgroundImageFix"/><feColorMatrix in="SourceAlpha" type="matrix" values="0 0 0 0 0 0 0 0 0 0 0 0 0 0 0 0 0 0 127 0"/><feOffset dy="2"/><feGaussianBlur stdDeviation="1.5"/><feColorMatrix type="matrix" values="0 0 0 0 0 0 0 0 0 0 0 0 0 0 0 0 0 0 0.25 0"/><feBlend in2="BackgroundImageFix" mode="normal" result="effect1_dropShadow"/><feBlend in="SourceGraphic" in2="effect1_dropShadow" mode="normal" result="shape"/><feGaussianBlur result="effect2_foregroundBlur" stdDeviation=".25"/></filter><filter id="b" color-interpolation-filters="sRGB" filterUnits="userSpaceOnUse" height="18" width="94.1763" x="2.82373" y="40"><feFlood flood-opacity="0" result="BackgroundImageFix"/><feBlend in="SourceGraphic" in2="BackgroundImageFix" mode="normal" result="shape"/><feColorMatrix in="SourceAlpha" result="hardAlpha" type="matrix" values="0 0 0 0 0 0 0 0 0 0 0 0 0 0 0 0 0 0 127 0"/><feOffset dy="37"/><feGaussianBlur stdDeviation="7.5"/><feComposite in2="hardAlpha" k2="-1" k3="1" operator="arithmetic"/><feColorMatrix type="matrix" values="0 0 0 0 0 0 0 0 0 0 0 0 0 0 0 0 0 0 0.5 0"/><feBlend in2="shape" mode="normal" result="effect1_innerShadow"/></filter><filter id="c" color-interpolation-filters="sRGB" filterUnits="userSpaceOnUse" height="11.8913" width="88" x="31.5" y="50.5544"><feFlood flood-opacity="0" result="BackgroundImageFix"/><feBlend in="SourceGraphic" in2="BackgroundImageFix" mode="normal" result="shape"/><feGaussianBlur result="effect1_foregroundBlur" stdDeviation=".25"/></filter><filter id="d" color-interpolation-filters="sRGB" filterUnits="userSpaceOnUse" height="3" width="100" x="5.5" y="41.5"><feFlood flood-opacity="0" result="BackgroundImageFix"/><feBlend in="SourceGraphic" in2="BackgroundImageFix" mode="normal" result="shape"/><feGaussianBlur result="effect1_foregroundBlur" stdDeviation=".25"/></filter><filter id="e" color-interpolation-filters="sRGB" filterUnits="userSpaceOnUse" height="3" width="102" x="5.5" y="52.5"><feFlood flood-opacity="0" result="BackgroundImageFix"/><feBlend in="SourceGraphic" in2="BackgroundImageFix" mode="normal" result="shape"/><feGaussianBlur result="effect1_foregroundBlur" stdDeviation=".25"/></filter><filter id="f" color-interpolation-filters="sRGB" filterUnits="userSpaceOnUse" height="30.5" width="111" x="4" y="19.5"><feFlood flood-opacity="0" result="BackgroundImageFix"/><feColorMatrix in="SourceAlpha" type="matrix" values="0 0 0 0 0 0 0 0 0 0 0 0 0 0 0 0 0 0 127 0"/><feOffset dy="2"/><feGaussianBlur stdDeviation="1.5"/><feColorMatrix type="matrix" values="0 0 0 0 0 0 0 0 0 0 0 0 0 0 0 0 0 0 0.25 0"/><feBlend in2="BackgroundImageFix" mode="normal" result="effect1_dropShadow"/><feBlend in="SourceGraphic" in2="effect1_dropShadow" mode="normal" result="shape"/><feGaussianBlur result="effect2_foregroundBlur" stdDeviation=".25"/></filter><filter id="g" color-interpolation-filters="sRGB" filterUnits="userSpaceOnUse" height="11.6912" width="86" x="26.5" y="23.5544"><feFlood flood-opacity="0" result="BackgroundImageFix"/><feBlend in="SourceGraphic" in2="BackgroundImageFix" mode="normal" result="shape"/><feGaussianBlur result="effect1_foregroundBlur" stdDeviation=".25"/></filter><filter id="h" color-interpolation-filters="sRGB" filterUnits="userSpaceOnUse" height="10.5" width="108" x="2" y="12.5"><feFlood flood-opacity="0" result="BackgroundImageFix"/><feColorMatrix in="SourceAlpha" type="matrix" values="0 0 0 0 0 0 0 0 0 0 0 0 0 0 0 0 0 0 127 0"/><feOffset dy="4"/><feGaussianBlur stdDeviation="2"/><feColorMatrix type="matrix" values="0 0 0 0 0 0 0 0 0 0 0 0 0 0 0 0 0 0 0.25 0"/><feBlend in2="BackgroundImageFix" mode="normal" result="effect1_dropShadow"/><feBlend in="SourceGraphic" in2="effect1_dropShadow" mode="normal" result="shape"/><feGaussianBlur result="effect2_foregroundBlur" stdDeviation=".25"/></filter><filter id="i" color-interpolation-filters="sRGB" filterUnits="userSpaceOnUse" height="4.2" width="101" x="5" y="26.8"><feFlood flood-opacity="0" result="BackgroundImageFix"/><feColorMatrix in="SourceAlpha" type="matrix" values="0 0 0 0 0 0 0 0 0 0 0 0 0 0 0 0 0 0 127 0"/><feOffset dy="1"/><feGaussianBlur stdDeviation=".5"/><feColorMatrix type="matrix" values="0 0 0 0 0 0 0 0 0 0 0 0 0 0 0 0 0 0 0.25 0"/><feBlend in2="BackgroundImageFix" mode="normal" result="effect1_dropShadow"/><feBlend in="SourceGraphic" in2="effect1_dropShadow" mode="normal" result="shape"/><feGaussianBlur result="effect2_foregroundBlur" stdDeviation=".1"/></filter><linearGradient id="j"><stop offset=".049586" stop-color="#fdfdfd"/><stop offset=".194577" stop-color="#2e2d2d" stop-opacity=".977846"/><stop offset="1" stop-color="#2e2d2d"/></linearGradient><linearGradient id="k" gradientUnits="userSpaceOnUse" x1="21.5" x2="27.3538" xlink:href="#j" y1="72" y2="64.114"/><linearGradient id="l"><stop offset="0" stop-color="#c4c4c4"/><stop offset=".0886133" stop-color="#d8d5d5" stop-opacity="0"/><stop offset=".143865" stop-color="#959393"/><stop offset=".204642" stop-color="#a3a1a1"/><stop offset=".276469" stop-color="#c4c4c4"/><stop offset=".342772" stop-color="#9b9999"/><stop offset=".420124" stop-color="#e6e2e2"/><stop offset=".497477" stop-color="#b8b4b4"/><stop offset=".563779" stop-color="#dbd6d6"/><stop offset=".652182" stop-color="#a7a3a3" stop-opacity="0"/><stop offset=".740584" stop-color="#c4c4c4"/><stop offset=".817937" stop-color="#a7a4a4"/><stop offset=".928441" stop-color="#c4c4c4"/><stop offset="1" stop-color="#c4c4c4"/></linearGradient><linearGradient id="m" gradientUnits="userSpaceOnUse" x1="24" x2="9.5" xlink:href="#l" y1="48" y2="68.5"/><linearGradient id="n" gradientUnits="userSpaceOnUse" x1="73" x2="76.5" xlink:href="#l" y1="52" y2="78.5"/><linearGradient id="o"><stop offset="0" stop-color="#f3f1f1"/><stop offset="1" stop-color="#ddd9d9"/></linearGradient><linearGradient id="p" gradientUnits="userSpaceOnUse" x1="107" x2="8.0404" xlink:href="#o" y1="48.2001" y2="48.2001"/><linearGradient id="q" gradientUnits="userSpaceOnUse" x1="57" x2="57" xlink:href="#l" y1="44" y2="53"/><linearGradient id="r" gradientUnits="userSpaceOnUse" x1="21.5" x2="29.5" xlink:href="#j" y1="43" y2="30.5"/><linearGradient id="s" gradientUnits="userSpaceOnUse" x1="7" x2="104.5" y1="28" y2="28"><stop offset="0" stop-color="#434141"/><stop offset="1" stop-color="#747272" stop-opacity="0"/></linearGradient><linearGradient id="t" gradientUnits="userSpaceOnUse" x1="52" x2="50.5" y1="17.5" y2="30"><stop offset=".500115" stop-color="#d7d7d7"/><stop offset="1" stop-color="#716e6e"/></linearGradient><linearGradient id="u" gradientUnits="userSpaceOnUse" x1="68" x2="69.5" xlink:href="#l" y1="26" y2="41"/><linearGradient id="v" gradientUnits="userSpaceOnUse" x1="17" x2="12.3408" y1="27" y2="35.186"><stop offset="0" stop-color="#ddd6d6"/><stop offset=".0886133" stop-color="#d8d5d5" stop-opacity="0"/><stop offset=".143865" stop-color="#b3aeae"/><stop offset=".204642" stop-color="#d1cccc"/><stop offset=".276469" stop-color="#e1dbdb"/><stop offset=".342772" stop-color="#bbb7b7"/><stop offset=".420124" stop-color="#faf4f4"/><stop offset=".497477" stop-color="#f5f0f0"/><stop offset=".563779" stop-color="#d5cece"/><stop offset=".652182" stop-color="#6e6b6b"/><stop offset=".740584" stop-color="#dfd9d9"/><stop offset=".817937" stop-color="#c9c2c2"/><stop offset=".928441" stop-color="#dedada"/><stop offset="1" stop-color="#e8e7e7"/></linearGradient><linearGradient id="w" gradientUnits="userSpaceOnUse" x1="100.5" x2="13.5" y1="6.00002" y2="6.00002"><stop offset="0" stop-color="#c0bcbc"/><stop offset="1" stop-color="#9e9a9a"/></linearGradient><linearGradient id="x" gradientUnits="userSpaceOnUse" x1="105" x2="8" xlink:href="#o" y1="24" y2="24"/><linearGradient id="y" gradientUnits="userSpaceOnUse" x1="56" x2="56" xlink:href="#l" y1="13" y2="26"/><g filter="url(#a)"><path d="m3 58 103.5-4 10.801 12.6008c.516.6024.159 1.5375-.628 1.6421l-84.2712 11.2037c-.2577.0342-.5186-.0332-.7274-.188z" fill="url(#k)"/></g><g filter="url(#b)"><path d="m3.00007 40h94.00003v18h-94.00003c-.21026-3.8189-.08672-5.779.5-9-.73868-3.7238-.81709-5.6841-.5-9z" fill="#494949"/></g><path d="m5 41 28 18.5v17.5l-28-20.5z" fill="#c4c4c4"/><path d="m5 41 28 18.5v17.5l-28-20.5z" fill="url(#m)" opacity=".7"/><path d="m33 60.5 80-8.5v14.5l-80 10.5z" fill="#c4c4c4"/><path d="m33 60.5 80-8.5v14.5l-80 10.5z" fill="url(#n)" opacity=".7"/><path d="m3 40h97l19 11-87 9z" fill="#a09e9e"/><g filter="url(#c)"><path d="m32 60.4509c0-.2562.1937-.4709.4486-.4973l86.0004-8.8966c.294-.0305.551.2009.551.4974v.9947c0 .2562-.194.4709-.449.4973l-85.9996 8.8966c-.2949.0305-.5514-.2009-.5514-.4974z" fill="#2e2d2d"/></g><path d="m10 34h93l2 8h-99z" fill="#828282"/><g filter="url(#d)"><path d="m6 42.5c0-.2761.22386-.5.5-.5h98c.276 0 .5.2239.5.5v1c0 .2761-.224.5-.5.5h-98c-.27614 0-.5-.2239-.5-.5z" fill="#2e2d2d"/></g><path d="m10 45h93l4 8h-101z" fill="url(#p)"/><path d="m9 44h96v9h-96z" fill="url(#q)" opacity=".7"/><g filter="url(#e)"><path d="m6 53.5c0-.2761.22386-.5.5-.5h100c.276 0 .5.2239.5.5v1c0 .2761-.224.5-.5.5h-100c-.27614 0-.5-.2239-.5-.5z" fill="#2e2d2d"/></g><g filter="url(#f)"><path d="m7 32 93.5-11.5 11.5 15.5-85 9z" fill="url(#r)"/></g><path d="m6.9999 20h94.0001v12h-94.0001c-.87059-4.7791-.88562-7.4134 0-12z" fill="url(#s)"/><path d="m7 20h97l8 4-87 9z" fill="url(#t)"/><path d="m28 34.5 80-8.5v9l-80 8z" fill="url(#u)"/><path d="m9.5 22 18.5 11.5v9.5l-20-12.5z" fill="url(#v)"/><g filter="url(#g)"><path d="m27 33.2509c0-.2562.1937-.4709.4485-.4973l84.0005-8.6965c.294-.0305.551.2008.551.4973v.9947c0 .2562-.194.471-.449.4973l-83.9995 8.6965c-.2949.0305-.5515-.2008-.5515-.4973z" fill="#2e2d2d"/></g><path d="m18.4142.585786c.3751-.375073.8838-.585786 1.4142-.585786h77.977c.7358 0 1.4121.403981 1.761 1.0518l6.4336 11.9482h-100z" fill="url(#w)"/><path d="m10 22h93l2 5h-99z" fill="url(#x)"/><path d="m9 13h94v13h-94z" fill="url(#y)" opacity=".7"/><path d="m9 13h94v13h-94z" fill="url(#y)" opacity=".7"/><g filter="url(#h)"><path d="m6 13.5c0-.2761.22386-.5.5-.5h99c.276 0 .5.2239.5.5v1c0 .2761-.224.5-.5.5h-99c-.27614 0-.5-.2239-.5-.5z" fill="#4f4f4f"/></g><g filter="url(#i)"><path d="m6 27.5c0-.2761.22386-.5.5-.5h98c.276 0 .5.2239.5.5v1c0 .2761-.224.5-.5.5h-98c-.27614 0-.5-.2239-.5-.5z" fill="#4f4f4f"/></g></svg>