<svg width="20" height="20" viewBox="0 0 20 20" fill="none" xmlns="http://www.w3.org/2000/svg">
<g clip-path="url(#clip0_44_14)">
<path d="M7.10831 13.9437C7.10831 13.9437 7.08835 13.9679 7.0494 14.0118C7.01112 14.0563 6.95288 14.1195 6.87905 14.2003C6.73034 14.3608 6.51315 14.5852 6.24327 14.8454C6.10823 14.9753 5.96065 15.1148 5.80182 15.2596C5.6435 15.4049 5.47374 15.5554 5.29694 15.7098C5.11925 15.8634 4.93561 16.022 4.74905 16.1833C4.56143 16.3434 4.37214 16.5075 4.17991 16.6686C3.98831 16.8303 3.79667 16.992 3.60804 17.1512C3.41952 17.3105 3.23093 17.4641 3.05007 17.6145C2.95944 17.6895 2.8703 17.7633 2.78308 17.8355C2.69511 17.9069 2.60901 17.9768 2.52522 18.0448C2.35725 18.1805 2.20003 18.3103 2.05186 18.4272C1.90421 18.5445 1.7689 18.6521 1.6489 18.7475C1.52804 18.8419 1.42265 18.9243 1.33589 18.992C1.24847 19.0592 1.17975 19.1119 1.13288 19.1479C1.08569 19.1835 1.06054 19.2025 1.06054 19.2025C0.936434 19.2963 0.759872 19.2717 0.666083 19.1476C0.588466 19.0449 0.592176 18.906 0.666083 18.8081C0.666083 18.8081 0.685106 18.7829 0.720731 18.7358C0.756708 18.6889 0.809442 18.6202 0.876591 18.5327C0.944403 18.446 1.02675 18.3406 1.12116 18.2197C1.21651 18.0998 1.32409 17.9644 1.44143 17.8168C1.55827 17.6686 1.68811 17.5114 1.82382 17.3434C1.89186 17.2596 1.96175 17.1735 2.03315 17.0856C2.10534 16.9983 2.17909 16.9092 2.25409 16.8186C2.40448 16.6377 2.55815 16.4491 2.71745 16.2606C2.87663 16.072 3.03835 15.8804 3.20007 15.6887C3.36116 15.4965 3.52518 15.3072 3.68538 15.1196C3.84659 14.933 4.00526 14.7494 4.15882 14.5717C4.31327 14.3949 4.4637 14.2251 4.60901 14.0668C4.75386 13.908 4.89331 13.7604 5.02327 13.6254C5.28339 13.3555 5.50788 13.1383 5.66831 12.9896C5.74909 12.9158 5.81229 12.8575 5.85682 12.8192C5.90069 12.7803 5.92491 12.7603 5.92491 12.7603C6.28311 12.465 6.81292 12.516 7.10823 12.8742C7.36866 13.1901 7.35952 13.6394 7.10831 13.9437Z" fill="#96A9B2"/>
<path d="M19.3085 7.85684L19.0523 8.11305C18.2101 8.95524 16.8447 8.95524 16.0025 8.11305C15.9592 8.06981 15.8892 8.06981 15.846 8.11305L12.6339 11.3251C12.4288 11.5302 12.4045 11.8513 12.5693 12.0901C13.3512 13.2234 13.2383 14.7877 12.23 15.796L10.9757 17.0502C10.3024 17.7236 9.21077 17.7236 8.53745 17.0502L2.81847 11.3312C2.14515 10.6579 2.14515 9.56626 2.81847 8.89294L4.07269 7.63872C5.08108 6.63032 6.6453 6.51751 7.77858 7.29938C8.01741 7.46415 8.33847 7.43989 8.54362 7.23473L11.7557 4.0227C11.7989 3.97946 11.7989 3.90938 11.7557 3.86618C10.9135 3.02399 10.9135 1.65856 11.7557 0.816375L12.0119 0.560164C12.3317 0.240281 12.8504 0.240281 13.1703 0.560164L19.3085 6.69841C19.6284 7.01829 19.6284 7.53696 19.3085 7.85684Z" fill="#132028"/>
<path d="M9.85483 9.04481C9.68987 9.04481 9.52495 8.98188 9.39909 8.85602C9.14741 8.6043 9.14741 8.19621 9.39909 7.94449L11.9592 5.38438C12.2109 5.1327 12.619 5.1327 12.8707 5.38438C13.1224 5.6361 13.1224 6.04418 12.8707 6.2959L10.3106 8.85602C10.1847 8.98192 10.0198 9.04481 9.85483 9.04481Z" fill="#4F5354"/>
</g>
<defs>
<clipPath id="clip0_44_14">
<rect width="20" height="20" fill="white"/>
</clipPath>
</defs>
</svg>
