<svg height="20" viewBox="0 0 20 20" width="20" xmlns="http://www.w3.org/2000/svg"><path d="m3.50004 1.99664.08988.00806c.20409.03704.36502.19797.40207.40207l.00805.08987-.00066 2.21153c1.16494-1.32314 2.7491-2.24174 4.54278-2.57418 4.34434-.80517 8.51874 2.06386 9.32394 6.40815.8051 4.34426-2.0639 8.51876-6.4082 9.32396-4.34428.8051-8.51881-2.0639-9.32398-6.4082-.08671-.4678-.15755-1.3195-.12974-1.97907.01164-.2759.24473-.49012.52062-.47849.2759.01163.49013.24472.4785.52062-.02446.57984.0402 1.35724.11388 1.75474.70451 3.8012 4.35724 6.3116 8.15852 5.6071 3.8012-.7045 6.3116-4.3572 5.6071-8.15842-.7045-3.80126-4.3572-6.31166-8.15841-5.60714-1.83916.34087-3.42525 1.38477-4.46595 2.87828l3.24154.00112.08988.00806c.23324.04233.41012.24648.41012.49194s-.17688.44961-.41012.49195l-.08988.00805h-3.99994l-.08987-.00805c-.2041-.03705-.36503-.19798-.40207-.40207l-.00806-.08988v-4l.00806-.08987c.03704-.2041.19797-.36503.40207-.40207zm6 4 .08988.00806c.20409.03704.36502.19797.40207.40207l.00801.08987v4.00336h2l.0899.0081c.2333.0423.4101.2465.4101.4919 0 .2455-.1768.4496-.4101.492l-.0899.008h-2.49996l-.08987-.008c-.2041-.0371-.36503-.198-.40207-.4021l-.00806-.0899v-4.50336l.00806-.08987c.03704-.2041.19797-.36503.40207-.40207z" fill="#212121"/></svg>