<svg width="20" height="20" viewBox="0 0 20 20" fill="none" xmlns="http://www.w3.org/2000/svg">
<g clip-path="url(#clip0_44_40)">
<path d="M10.4991 10.3754C10.4991 10.3754 10.4791 10.3996 10.4402 10.4435C10.4019 10.488 10.3436 10.5512 10.2698 10.632C10.1211 10.7925 9.9039 11.0169 9.63402 11.2771C9.49898 11.407 9.3514 11.5465 9.19257 11.6913C9.03425 11.8366 8.86449 11.9871 8.68769 12.1415C8.50999 12.2951 8.32636 12.4537 8.1398 12.615C7.95218 12.7751 7.76288 12.9392 7.57066 13.1003C7.37906 13.262 7.18742 13.4237 6.99878 13.5829C6.81027 13.7422 6.62167 13.8959 6.44081 14.0462C6.35019 14.1212 6.26105 14.195 6.17382 14.2672C6.08585 14.3386 5.99976 14.4085 5.91597 14.4765C5.748 14.6122 5.59078 14.742 5.44261 14.8589C5.29495 14.9762 5.15964 15.0838 5.03964 15.1792C4.91878 15.2736 4.81339 15.356 4.72663 15.4237C4.63921 15.4909 4.5705 15.5436 4.52363 15.5796C4.47644 15.6152 4.45128 15.6342 4.45128 15.6342C4.32718 15.728 4.15062 15.7034 4.05683 15.5793C3.97921 15.4766 3.98292 15.3377 4.05683 15.2398C4.05683 15.2398 4.07585 15.2146 4.11148 15.1675C4.14745 15.1206 4.20019 15.0519 4.26734 14.9644C4.33515 14.8777 4.41749 14.7723 4.51191 14.6514C4.60726 14.5315 4.71484 14.3961 4.83218 14.2485C4.94902 14.1003 5.07886 13.9431 5.21456 13.7751C5.28261 13.6913 5.35249 13.6052 5.4239 13.5173C5.49609 13.43 5.56984 13.3409 5.64484 13.2503C5.79523 13.0694 5.9489 12.8808 6.1082 12.6923C6.26738 12.5037 6.4291 12.3121 6.59081 12.1204C6.75191 11.9282 6.91593 11.7389 7.07613 11.5513C7.23734 11.3647 7.39601 11.1811 7.54956 11.0034C7.70402 10.8266 7.85445 10.6568 7.99976 10.4985C8.1446 10.3397 8.28406 10.1921 8.41402 10.0571C8.67413 9.78718 8.89863 9.56999 9.05906 9.42128C9.13984 9.34745 9.20304 9.28921 9.24757 9.25093C9.29144 9.21198 9.31566 9.19202 9.31566 9.19202C9.67386 8.89671 10.2037 8.94769 10.499 9.30589C10.7594 9.62179 10.7503 10.0711 10.4991 10.3754Z" fill="#96A9B2"/>
<path d="M19.995 7.53659L19.7388 7.7928C18.8966 8.63499 17.5312 8.63499 16.689 7.7928C16.6458 7.74956 16.5757 7.74956 16.5325 7.7928L13.3205 11.0048C13.1153 11.21 13.091 11.531 13.2558 11.7699C14.0377 12.9032 13.9248 14.4674 12.9165 15.4758L11.6623 16.73C10.9889 17.4033 9.89729 17.4033 9.22397 16.73L3.50499 11.011C2.83167 10.3376 2.83167 9.24601 3.50499 8.57269L4.75921 7.31847C5.76761 6.31007 7.33183 6.19726 8.46511 6.97913C8.70393 7.1439 9.02499 7.11964 9.23015 6.91448L12.4422 3.70245C12.4854 3.65921 12.4854 3.58913 12.4422 3.54593C11.6 2.70374 11.6 1.33831 12.4422 0.496123L12.6984 0.239912C13.0183 -0.0799707 13.5369 -0.0799707 13.8568 0.239912L19.9951 6.37815C20.3149 6.69804 20.3149 7.21671 19.995 7.53659Z" fill="#132028"/>
<path d="M9.85483 9.04481C9.68987 9.04481 9.52495 8.98188 9.39909 8.85602C9.14741 8.6043 9.14741 8.19621 9.39909 7.94449L11.9592 5.38438C12.2109 5.1327 12.619 5.1327 12.8707 5.38438C13.1224 5.6361 13.1224 6.04418 12.8707 6.2959L10.3106 8.85602C10.1847 8.98192 10.0198 9.04481 9.85483 9.04481Z" fill="#4F5354"/>
<path d="M4.09856 15.826C4.19245 15.9976 4.49335 15.8693 4.63509 16.0417C4.7781 16.2141 4.70656 16.3573 4.92839 16.4886C5.14977 16.6189 5.29025 16.857 5.42005 16.8729C5.54968 16.8885 5.44472 17.052 5.60227 17.1119C5.75901 17.1706 5.82463 17.2469 5.90664 17.3789C5.92634 17.4106 5.96062 17.4515 6.00421 17.4955L5.98466 17.4845C6.13471 17.6009 6.39225 17.7147 6.52403 17.6951C6.69542 17.6708 6.82945 17.8493 6.92713 17.9103C6.9573 17.9293 6.97951 17.9497 6.99552 17.969C7.0023 17.9771 7.00277 17.9903 6.99938 18.0022C6.99938 18.0022 6.99938 18.0022 6.99938 18.0022C6.99515 18.017 6.98497 18.0298 6.97361 18.0286C6.91841 18.0227 6.83323 18.0244 6.72411 18.0504C6.51951 18.0973 6.534 17.9841 6.28171 17.9524C6.10301 17.9277 5.95748 17.9374 5.80029 17.8751L5.76431 17.8547C5.70609 17.8209 5.6486 17.776 5.58976 17.711C5.39203 17.4899 5.16739 17.6873 4.93381 17.3103C4.70622 16.933 4.48838 17.1467 4.14182 16.9179C3.79487 16.6879 3.51532 16.2169 3.32626 16.0588C3.13501 15.9004 2.86954 15.695 2.65301 15.4102C2.50284 15.2122 2.28055 15.0293 2.09464 14.7965L2.05282 14.7302C1.98924 14.6074 1.94064 14.4779 1.91703 14.3483C1.83171 13.9222 1.8441 13.3527 1.88408 13.0973C1.9225 12.8403 1.93361 12.7807 1.88734 12.5414C1.86126 12.4037 1.878 12.212 1.95562 12.0522C1.99471 11.9713 2.04923 11.9901 2.07555 12.0705C2.11413 12.188 2.09012 12.2842 2.15953 12.3436C2.29845 12.4611 2.3518 12.508 2.27908 12.6611C2.20701 12.8153 2.39215 12.8743 2.37806 12.9606C2.36692 13.0454 2.24927 13.0622 2.39456 13.4777C2.54752 13.8854 2.6488 14.075 2.72287 14.2056C2.7453 14.2438 2.76502 14.2979 2.78777 14.36L2.74477 14.2919C2.83027 14.4325 2.95258 14.6318 3.09867 14.7546C3.30416 14.932 3.68075 15.344 3.88417 15.4551C4.08581 15.5668 4.00625 15.6548 4.09856 15.826Z" fill="#6D6D6D"/>
</g>
<defs>
<clipPath id="clip0_44_40">
<rect width="20" height="20" fill="white"/>
</clipPath>
</defs>
</svg>
