<svg width="28" height="38" viewBox="0 0 28 38" fill="none" xmlns="http://www.w3.org/2000/svg">
<g clip-path="url(#clip0_6_17)">
<path d="M20.5929 13.4947C20.582 13.6801 20.5348 13.8616 20.4538 14.0287C20.3728 14.1958 20.2597 14.3454 20.1209 14.4688C19.9821 14.5922 19.8204 14.6871 19.6449 14.748C19.4695 14.8089 19.2838 14.8347 19.0984 14.8238C18.913 14.8129 18.7315 14.7657 18.5644 14.6847C18.3973 14.6037 18.2477 14.4906 18.1243 14.3518C18.0009 14.213 17.906 14.0513 17.8451 13.8758C17.7842 13.7004 17.7585 13.5147 17.7693 13.3293L18.3278 3.79967L19.8844 1.41178L21.1514 3.96516L20.5929 13.4947Z" stroke="#303030" stroke-width="0.5" stroke-linecap="round" stroke-linejoin="round"/>
</g>
<path d="M11.7719 15.8136L11.1654 16.8641L14.2108 28.2297L15.8677 27.7858L12.8223 16.4201L11.7719 15.8136ZM11.1488 13.4882L14.2816 15.2969L18.3757 30.6343C18.4257 30.8598 18.4362 31.0828 18.407 31.3035C18.3779 31.5242 18.3066 31.7329 18.1931 31.9294C18.0796 32.126 17.9328 32.2952 17.7527 32.4369C17.5726 32.5786 17.3698 32.6745 17.1443 32.7245L15.5272 33.1423C15.3069 33.2117 15.0851 33.2269 14.8618 33.1881C14.6385 33.1493 14.4347 33.0767 14.2504 32.9703C14.0539 32.8568 13.886 32.7148 13.7469 32.5444C13.6078 32.374 13.507 32.1725 13.4447 31.94L9.34004 16.621L11.1488 13.4882ZM15.0354 27.9932L15.8677 27.7858L14.2108 28.2297L15.0354 27.9932Z" fill="#1D1B20"/>
<defs>
<clipPath id="clip0_6_17">
<rect width="12" height="12" fill="white" transform="translate(27.9415 8.96719) rotate(138.354)"/>
</clipPath>
</defs>
</svg>
