<svg width="15" height="15" viewBox="0 0 15 15" fill="none" xmlns="http://www.w3.org/2000/svg">
<path d="M14.375 2.49999V6.24999M14.375 6.24999H10.625M14.375 6.24999L11.475 3.52499C10.8033 2.85293 9.97227 2.36199 9.05949 2.09797C8.14672 1.83395 7.18194 1.80546 6.25518 2.01515C5.32842 2.22484 4.46988 2.66588 3.75967 3.29712C3.04946 3.92836 2.51073 4.72923 2.19375 5.62499M0.625 12.5V8.74999M0.625 8.74999H4.375M0.625 8.74999L3.525 11.475C4.19672 12.147 5.02773 12.638 5.94051 12.902C6.85328 13.166 7.81806 13.1945 8.74482 12.9848C9.67158 12.7751 10.5301 12.3341 11.2403 11.7028C11.9505 11.0716 12.4893 10.2707 12.8062 9.37499" stroke="#1E1E1E" stroke-linecap="round" stroke-linejoin="round"/>
</svg>
